<svg version="1.2" xmlns="http://www.w3.org/2000/svg" viewBox="0 0 1517 1514" width="1517" height="1514">
	<title>Corteva_logo-svg</title>
	<defs>
		<clipPath clipPathUnits="userSpaceOnUse" id="cp1">
			<path d="m0.48 0.69h1570.32v1512.45h-1570.32z"/>
		</clipPath>
	</defs>
	<style>
		.s0 { fill: #2b73c2 } 
	</style>
	<g id="Layer">
		<g id="Layer">
			<g id="Clip-Path" clip-path="url(#cp1)">
				<g id="Layer">
					<path id="Layer" class="s0" d="m0.7 715.1l715.1-714.4c-385.4 21.1-694 329.4-715.1 714.4zm1493.3 225.7h-395.1l268.3 268.1c-38.6 51.8-83.9 98.7-134.4 139.2l-691.9-691.2-104.5 104.4 669.8 669.2c-63 32.7-131.3 56.6-203.1 70.6l-603.5-603.2-104.8 104.7 511.3 510.5c-269.2-18.2-499.9-176.4-619.3-402.5-16.4-31.3-30.9-63.5-42.7-96.9-12.3-33.8-22.1-68.6-29.4-104.6l895.3-894.4c69.4 14.2 135.3 37.9 196.5 69.6 1.6 0.9 3.3 1.6 4.9 2.6 90.1 47.3 169.8 112.5 233.8 190.9h-424.8l-138.2 138.2h653c30.4 60.2 53.1 125.1 66.6 193.3h-734.8l138.5 138.3h610.8c0 3.3 0.2 6.4 0.2 9.7 0 63.4-7.8 124.8-22.5 183.5z"/>
				</g>
			</g>
		</g>
	</g>
</svg>